<?xml version="1.0" encoding="UTF-8"?>
<svg xmlns="http://www.w3.org/2000/svg" xmlns:xlink="http://www.w3.org/1999/xlink" width="173.45pt" height="173.44pt" viewBox="0 0 173.45 173.44" version="1.1">
<defs>
<clipPath id="clip1">
  <path d="M 0 0 L 173.449219 0 L 173.449219 173.441406 L 0 173.441406 Z M 0 0 "/>
</clipPath>
</defs>
<g id="surface1">
<g clip-path="url(#clip1)" clip-rule="nonzero">
<path style=" stroke:none;fill-rule:nonzero;fill:rgb(92.89856%,10.998535%,13.699341%);fill-opacity:1;" d="M 86.722656 173.441406 C 134.621094 173.441406 173.449219 134.625 173.449219 86.726563 C 173.449219 38.820313 134.621094 0.00390625 86.722656 0.00390625 C 38.828125 0.00390625 0 38.820313 0 86.726563 C 0 134.625 38.828125 173.441406 86.722656 173.441406 "/>
</g>
<path style=" stroke:none;fill-rule:nonzero;fill:rgb(100%,100%,100%);fill-opacity:1;" d="M 87.238281 113.210938 C 87.238281 113.210938 91.378906 117.40625 87.238281 121.542969 C 87.238281 121.542969 85.460938 123.316406 81.300781 127.476563 C 77.152344 131.621094 72.988281 127.476563 72.988281 127.476563 L 36.054688 90.542969 C 36.054688 90.542969 31.90625 86.359375 36.054688 82.214844 C 40.199219 78.066406 73.054688 45.210938 73.054688 45.210938 C 73.054688 45.210938 77.226563 41.066406 81.378906 45.210938 L 87.3125 51.140625 C 91.457031 55.28125 87.3125 59.464844 87.3125 59.464844 L 64.671875 82.132813 C 64.671875 82.132813 60.515625 86.292969 64.671875 90.441406 C 68.816406 94.589844 87.238281 113.210938 87.238281 113.210938 "/>
<path style=" stroke:none;fill-rule:nonzero;fill:rgb(100%,100%,100%);fill-opacity:1;" d="M 155.160156 90.472656 L 141.945313 103.691406 L 141.945313 123.363281 C 141.945313 123.363281 141.976563 129.238281 147.84375 129.238281 L 156.21875 129.238281 C 162.085938 129.238281 162.097656 123.363281 162.097656 123.363281 L 162.097656 96.351563 C 162.097656 96.351563 162.085938 90.46875 156.21875 90.46875 "/>
<path style=" stroke:none;fill-rule:nonzero;fill:rgb(100%,100%,100%);fill-opacity:1;" d="M 106.121094 98.761719 C 106.121094 98.761719 110.300781 102.902344 114.449219 98.761719 C 118.605469 94.613281 148.269531 65.15625 148.269531 65.15625 C 148.269531 65.15625 152.441406 61 156.601563 65.15625 C 156.601563 65.15625 158.371094 66.929688 162.519531 71.078125 C 166.679688 75.226563 162.519531 79.402344 162.519531 79.402344 L 114.449219 127.476563 C 114.449219 127.476563 110.269531 131.621094 106.121094 127.476563 C 101.96875 123.316406 69.121094 90.46875 69.121094 90.46875 C 69.121094 90.46875 64.960938 86.292969 69.121094 82.144531 C 69.121094 82.144531 70.894531 80.378906 75.042969 76.226563 C 79.1875 72.0625 83.375 76.226563 83.375 76.226563 "/>
<path style=" stroke:none;fill-rule:nonzero;fill:rgb(100%,100%,100%);fill-opacity:1;" d="M 30.820313 20.417969 C 17.808594 31.160156 11.148438 44.171875 11.148438 44.171875 L 11.148438 123.425781 C 11.148438 123.425781 11.160156 129.316406 17.027344 129.316406 L 25.40625 129.316406 C 31.273438 129.316406 31.292969 123.425781 31.292969 123.425781 L 31.292969 48.9375 C 31.292969 48.9375 31.285156 22.710938 31.292969 22.710938 C 31.292969 22.710938 31.292969 21.671875 30.855469 20.46875 "/>
</g>
</svg>
